# xmcd
#
# Track frame offsets:
#	150
#	18973
#	36790
#	59005
#	75902
#	90458
#	105772
#	123348
#	137117
#	152909
#	175161
#	192433
#
# Disc length: 2881 seconds
#
# Revision: 1
# Processed by: cddbd v1.4PL0 Copyright (c) Steve Scherf et al.
# Submitted via: audiograbber 1.82.00
#
DISCID=8e0b3f0c
DTITLE=Pappy Johns Band - Blame It On Monday
DYEAR=2001
DGENRE=Blues
TTITLE0=Wishing Princess
TTITLE1=Shame, Shame, Shame
TTITLE2=Blame It On Monday
TTITLE3=Some Kind Of Wonderful
TTITLE4=Where's My Limo
TTITLE5=It Takes A Big Man (To Cry)
TTITLE6=Waiting By The Telephone
TTITLE7=Walking By Myself
TTITLE8=Rezzanation
TTITLE9=Soul Shine
TTITLE10=Key To The Highway
TTITLE11=Lenny
EXTD=
EXTT0=
EXTT1=
EXTT2=
EXTT3=
EXTT4=
EXTT5=
EXTT6=
EXTT7=
EXTT8=
EXTT9=
EXTT10=
EXTT11=
PLAYORDER=
